Kung Fu Panda 2008 SWESUB 720p BRRip XviD-ASPiRE
 
http://www.imdb.com/title/tt0441773/

Handling:

Po är en slö Panda som tillbringar dagarna med att lata sig och göra ingenting. 
Hans behagliga liv tar dock raskt slut när hans hem, Fredens Dal, måste räddas 
från en ondsint inkräktare, snöleoparden Tai Lung. Po tvingas lära sig slåss och 
bli en Kung Fu Master. 

iNFO:

Genre: Animerat, Action, Äventyr
Regi: Mark Osborne, John Stevenson
Medverkande: Jack Black, JAckie Chan, Angelina Jolie, Dustin Hoffman
Produktionsland: USA
Språk: Engelska
Text: Svenska

General:
Format                           : AVI
Format/Info                      : Audio Video Interleave
File size                        : 1.88 GiB
Duration                         : 1h 32mn
Overall bit rate                 : 2 924 Kbps

Video:
ID                               : 0
Format                           : MPEG-4 Visual
Format profile                   : Advanced Simple@L5
Format settings, BVOP            : 1
Format settings, QPel            : No
Format settings, GMC             : No warppoints
Format settings, Matrix          : Default (H.263)
Muxing mode                      : Packed bitstream
Codec ID                         : XVID
Codec ID/Hint                    : XviD
Duration                         : 1h 32mn
Bit rate                         : 2 468 Kbps
Width                            : 1 280 pixels
Height                           : 544 pixels
Display aspect ratio             : 2.35:1
Frame rate                       : 23.976 fps
Color space                      : YUV
Chroma subsampling               : 4:2:0
Bit depth                        : 8 bits
Scan type                        : Progressive
Compression mode                 : Lossy
Bits/(Pixel*Frame)               : 0.148
Stream size                      : 1.59 GiB (84%)
Writing library                  : XviD 62

Audio:
ID                               : 1
Format                           : AC-3
Format/Info                      : Audio Coding 3
Mode extension                   : CM (complete main)
Codec ID                         : 2000
Duration                         : 1h 32mn
Bit rate mode                    : Constant
Bit rate                         : 448 Kbps
Channel(s)                       : 6 channels
Channel positions                : Front: L C R, Side: L R, LFE
Sampling rate                    : 48.0 KHz
Bit depth                        : 16 bits
Compression mode                 : Lossy
Stream size                      : 295 MiB (15%)
Alignment                        : Split accross interleaves
Interleave, duration             : 64 ms (1.53 video frames)
Interleave, preload duration     : 500 ms

ASPiRE